<?xml version="1.0" encoding="UTF-8"?>
<svg id="Camada_1" xmlns="http://www.w3.org/2000/svg" xmlns:xlink="http://www.w3.org/1999/xlink" viewBox="0 0 400 126.47">
  <defs>
    <style>
      .cls-1 {
        clip-path: url(#clippath-6);
      }

      .cls-2 {
        fill: url(#Gradiente_sem_nome_5);
      }

      .cls-3 {
        clip-path: url(#clippath-4);
      }

      .cls-4 {
        fill: none;
      }

      .cls-5 {
        fill: url(#Gradiente_sem_nome_5-5);
      }

      .cls-6 {
        clip-path: url(#clippath-1);
      }

      .cls-7 {
        clip-path: url(#clippath-5);
      }

      .cls-8 {
        clip-path: url(#clippath-3);
      }

      .cls-9 {
        fill: url(#Gradiente_sem_nome_5-4);
      }

      .cls-10 {
        clip-path: url(#clippath-2);
      }

      .cls-11 {
        fill: url(#Gradiente_sem_nome_5-3);
      }

      .cls-12 {
        fill: url(#Gradiente_sem_nome_5-2);
      }

      .cls-13 {
        clip-path: url(#clippath);
      }
    </style>
    <clipPath id="clippath">
      <path class="cls-4" d="M127.18,77.85c-5.57,1.58-10.18,2.37-13.84,2.37-3.28,0-5.76-.41-7.42-1.25-1.66-.83-2.78-2.12-3.36-3.86-.58-1.75-.87-3.99-.87-6.73V3.05h-25.62v16.36h8.79v49.58c0,10.06,1.84,17.37,5.52,21.94,3.68,4.57,9.67,6.86,17.98,6.86,3.74,0,7.25-.21,10.53-.62,3.28-.41,6.69-1.08,10.22-1.99l-1.93-17.33Z"/>
    </clipPath>
    <radialGradient id="Gradiente_sem_nome_5" data-name="Gradiente sem nome 5" cx="8.91" cy="-126.02" fx="8.91" fy="-126.02" r="517.47" gradientUnits="userSpaceOnUse">
      <stop offset="0" stop-color="#a8348b"/>
      <stop offset="1" stop-color="#43398e"/>
    </radialGradient>
    <clipPath id="clippath-1">
      <path class="cls-4" d="M161.87,21.57c-3.2,0-5.8-1-7.79-2.99-1.99-2-2.99-4.59-2.99-7.79s1-5.8,2.99-7.79S158.67,0,161.87,0s5.8,1,7.79,2.99c2,1.99,2.99,4.59,2.99,7.79s-1,5.8-2.99,7.79c-1.99,1.99-4.59,2.99-7.79,2.99Z"/>
    </clipPath>
    <clipPath id="clippath-2">
      <polygon class="cls-4" points="171.03 80.97 171.03 30.48 154.2 30.48 137.37 30.48 137.37 46.06 154.2 46.06 154.2 80.97 137.37 80.97 137.37 96.55 154.2 96.55 171.03 96.55 187.86 96.55 187.86 80.97 171.03 80.97"/>
    </clipPath>
    <clipPath id="clippath-3">
      <path class="cls-4" d="M64.83,77.55c-6.1,2.6-12.29,3.89-18.56,3.89-18.82,0-28.23-10.6-28.23-31.8,0-9.65,2.24-17.1,6.72-22.36,4.44-5.21,10.34-7.83,17.69-7.88h16.23V3.05h-16.42c-13.42.06-23.81,4.17-31.16,12.36C3.7,23.66,0,35.28,0,50.3c0,31.67,14.69,47.5,44.06,47.5,8.31,0,16.22-1.47,23.75-4.41l-2.99-15.83Z"/>
    </clipPath>
    <radialGradient id="Gradiente_sem_nome_5-2" data-name="Gradiente sem nome 5" cy="-125.68" fy="-125.68" xlink:href="#Gradiente_sem_nome_5"/>
    <clipPath id="clippath-4">
      <path class="cls-4" d="M246.36,35.59c-3.82-4.24-9.22-6.36-16.21-6.36-4.9,0-8.56,1.09-10.97,3.27-2.41,2.18-3.93,5.5-4.55,9.94h-1.88l-1.55-11.97h-15.08v66.07h16.89v-32.97c0-12.22,4.24-18.32,12.71-18.32,3.03,0,5.37,1.08,7.01,3.24,1.64,2.16,2.46,5.24,2.46,9.22v38.83h16.89v-43.01c0-7.73-1.91-13.71-5.73-17.95Z"/>
    </clipPath>
    <radialGradient id="Gradiente_sem_nome_5-3" data-name="Gradiente sem nome 5" cy="-125.68" fy="-125.68" xlink:href="#Gradiente_sem_nome_5"/>
    <clipPath id="clippath-5">
      <path class="cls-4" d="M323.55,96.55l-18.23-32.15c.65-.61,1.29-1.23,1.9-1.91,6.27-7.04,10.31-17.71,12.09-32.01h-17.39c-.83,6.48-2.16,11.67-3.99,15.55-1.83,3.89-4.33,6.69-7.51,8.41-3.18,1.72-7.24,2.59-12.19,2.59h-1V3.05h-16.89v93.5h16.89v-23.5h4.11c3.51,0,6.75-.4,9.78-1.12l12.41,24.62h20.01Z"/>
    </clipPath>
    <radialGradient id="Gradiente_sem_nome_5-4" data-name="Gradiente sem nome 5" cy="-125.68" fy="-125.68" r="517.47" xlink:href="#Gradiente_sem_nome_5"/>
    <clipPath id="clippath-6">
      <path class="cls-4" d="M382.11,30.48l-14.46,51.73h-1.56l-16.39-51.73h-17.89l22.19,66.07h8.94c-.61,1.33-1.25,2.55-1.92,3.65-1.97,3.22-4.35,5.64-7.14,7.26-2.78,1.62-6.13,2.66-10.04,3.12l-11.41,1.25v14.65l12.9-1.25c6.19-.62,11.51-2.13,15.96-4.52,4.45-2.39,8.29-6,11.53-10.85,3.24-4.84,6.11-11.23,8.6-19.17l18.57-60.21h-17.89Z"/>
    </clipPath>
    <radialGradient id="Gradiente_sem_nome_5-5" data-name="Gradiente sem nome 5" cy="-125.3" fy="-125.3" r="517.47" xlink:href="#Gradiente_sem_nome_5"/>
  </defs>
  <g class="cls-13">
    <rect class="cls-2" y="-137.11" width="400" height="400"/>
  </g>
  <g class="cls-6">
    <rect class="cls-2" y="-137.11" width="400" height="400"/>
  </g>
  <g class="cls-10">
    <rect class="cls-2" y="-137.11" width="400" height="400"/>
  </g>
  <g class="cls-8">
    <rect class="cls-12" y="-136.77" width="400" height="400"/>
  </g>
  <g class="cls-3">
    <rect class="cls-11" y="-136.77" width="400" height="400"/>
  </g>
  <g class="cls-7">
    <rect class="cls-9" y="-136.77" width="400" height="400"/>
  </g>
  <g class="cls-1">
    <rect class="cls-5" y="-136.39" width="400" height="400"/>
  </g>
</svg>